<?xml version="1.0" standalone="no"?>
<!DOCTYPE svg PUBLIC "-//W3C//DTD SVG 20010904//EN"
 "http://www.w3.org/TR/2001/REC-SVG-20010904/DTD/svg10.dtd">
<svg version="1.0" xmlns="http://www.w3.org/2000/svg"
 width="500.000000pt" height="500.000000pt" viewBox="0 0 500.000000 500.000000"
 preserveAspectRatio="xMidYMid meet">

<g transform="translate(0.000000,500.000000) scale(0.100000,-0.100000)"
fill="#000000" stroke="none">
<path d="M395 3831 c-94 -20 -160 -56 -233 -126 -62 -60 -66 -85 -18 -113 23
-13 35 -30 40 -52 10 -52 7 -511 -4 -551 -7 -26 -21 -41 -50 -58 -22 -12 -40
-29 -40 -37 0 -12 30 -14 197 -12 209 3 237 10 172 45 -17 10 -43 28 -58 40
l-26 21 0 279 0 278 27 47 c53 90 158 112 248 52 67 -44 83 -80 79 -177 -3
-71 -8 -87 -29 -113 -22 -27 -88 -64 -114 -64 -24 0 -79 36 -91 61 -20 38 -19
56 6 90 14 20 29 29 49 29 33 0 39 -12 32 -57 -4 -29 -2 -33 17 -33 16 0 26
10 37 35 42 101 -98 162 -178 78 -15 -16 -31 -47 -36 -70 -46 -203 237 -304
398 -143 184 183 69 499 -202 554 -95 20 -121 19 -223 -3z"/>
<path d="M1465 3844 c-11 -2 -45 -9 -75 -15 -30 -6 -77 -24 -105 -39 -68 -39
-153 -119 -161 -152 -5 -22 -1 -29 25 -42 17 -9 35 -25 41 -35 6 -12 10 -124
10 -291 0 -299 -3 -316 -60 -340 -18 -8 -30 -20 -30 -31 0 -18 11 -19 185 -19
170 0 185 1 185 18 -1 9 -15 26 -33 37 -56 36 -58 43 -55 347 2 205 6 280 16
290 6 6 12 19 12 28 0 9 19 30 42 48 38 29 48 32 116 32 73 0 75 -1 112 -38
44 -43 57 -98 40 -161 -28 -105 -195 -128 -228 -31 -14 40 -4 68 29 86 46 24
91 -10 57 -44 -17 -17 4 -36 31 -27 75 23 29 135 -56 135 -116 0 -171 -132
-106 -254 15 -28 47 -75 71 -105 47 -59 73 -105 109 -191 31 -73 29 -94 -8
-123 -18 -14 -29 -29 -25 -36 5 -7 66 -11 192 -11 178 0 184 1 184 20 0 11 -8
24 -17 27 -78 28 -168 190 -161 286 l3 42 -81 6 c-45 3 -86 9 -93 13 -21 13
-11 23 32 30 80 13 118 29 161 71 120 118 83 326 -75 418 -67 39 -212 65 -284
51z"/>
<path d="M4256 3834 c-79 -17 -131 -43 -193 -95 -36 -30 -57 -65 -49 -84 2 -7
17 -19 32 -27 16 -7 31 -24 35 -38 11 -39 10 -561 -1 -601 -7 -26 -21 -41 -50
-58 -23 -13 -39 -28 -37 -34 3 -9 110 -13 388 -17 211 -3 390 -9 397 -13 13
-9 42 8 42 24 0 5 -11 19 -25 31 -14 12 -25 25 -25 30 0 5 -9 21 -20 36 -19
26 -50 125 -50 161 0 10 -7 24 -15 31 -22 18 -40 -1 -54 -55 -6 -25 -21 -57
-34 -71 -79 -92 -248 -83 -298 16 -11 22 -21 70 -25 127 -8 112 -1 126 53 111
51 -14 75 -32 112 -83 18 -25 38 -45 46 -45 23 0 26 30 6 68 -24 48 -61 195
-61 243 0 21 -5 41 -10 44 -15 9 -40 -14 -40 -37 0 -31 -26 -72 -58 -90 -45
-27 -51 -11 -43 117 6 90 12 118 32 154 33 60 78 83 148 78 46 -3 59 -9 83
-36 30 -34 34 -51 18 -82 -8 -13 -21 -19 -46 -19 -34 0 -35 -2 -32 -32 9 -96
186 -103 263 -11 28 34 30 42 30 115 0 84 -12 106 -46 87 -30 -16 -83 -10
-135 15 -64 30 -168 56 -225 55 -24 0 -75 -7 -113 -15z"/>
<path d="M2175 3810 c-4 -6 14 -30 38 -54 30 -28 48 -55 52 -77 3 -19 5 -183
3 -365 -3 -312 -4 -333 -22 -353 -11 -12 -31 -27 -45 -34 -14 -7 -27 -20 -29
-30 -3 -16 11 -17 187 -17 178 0 191 1 191 18 0 11 -14 25 -35 35 -20 9 -41
29 -47 44 -17 40 -23 592 -8 684 11 63 15 71 51 97 72 51 33 84 -56 46 -49
-20 -128 -20 -184 0 -50 18 -87 21 -96 6z"/>
<path d="M2810 3807 c0 -7 18 -31 41 -52 66 -65 77 -90 89 -209 8 -81 8 -145
0 -244 -13 -149 -18 -168 -50 -197 -21 -19 -23 -19 -52 -2 -33 19 -49 14 -86
-26 -19 -20 -23 -36 -23 -87 -1 -51 3 -66 23 -87 51 -55 97 -64 166 -33 36 16
47 29 72 82 25 54 31 83 40 208 6 80 9 199 6 265 l-6 120 19 -41 c10 -22 22
-56 25 -75 4 -19 18 -68 30 -109 13 -41 36 -118 51 -170 50 -175 80 -265 90
-272 32 -24 55 1 75 78 10 38 25 89 34 114 8 25 27 88 42 140 14 52 36 127 49
165 12 39 28 94 35 123 7 28 16 52 21 52 15 0 11 -540 -4 -570 -7 -13 -28 -35
-47 -48 -63 -42 -50 -47 153 -50 178 -2 187 -2 187 17 0 11 -12 23 -30 31 -58
24 -60 35 -60 410 0 372 -1 368 59 424 17 17 31 36 31 43 0 18 -49 17 -93 -2
-47 -19 -160 -19 -223 0 -58 18 -104 19 -104 4 0 -6 14 -27 30 -46 38 -43 40
-98 6 -203 -48 -150 -76 -247 -76 -263 0 -40 -20 -12 -40 56 -12 39 -28 93
-36 118 -8 25 -26 88 -39 140 -22 88 -23 96 -8 127 9 18 24 37 34 43 11 5 19
16 19 24 0 20 -52 19 -110 -1 -59 -21 -194 -21 -245 0 -46 19 -95 21 -95 3z"/>
<path d="M2695 2353 c61 -8 84 -23 101 -69 10 -27 14 -57 11 -76 -17 -98 -40
-186 -57 -224 -11 -24 -20 -48 -20 -53 0 -6 -11 -35 -25 -65 -14 -30 -25 -60
-25 -66 0 -6 -11 -28 -25 -50 -14 -22 -25 -46 -25 -54 0 -7 -7 -19 -15 -26
-21 -17 -19 -40 3 -40 19 0 52 29 52 45 0 11 40 96 100 217 29 58 43 95 35 91
-18 -6 -19 10 -3 40 13 25 38 149 38 191 0 16 -5 45 -11 65 -14 46 -70 82
-126 80 -33 -2 -34 -3 -8 -6z"/>
<path d="M2600 2335 c-31 -18 -16 -18 30 0 23 9 28 14 15 14 -11 0 -31 -6 -45
-14z"/>
<path d="M2535 2310 c-4 -6 -25 -23 -48 -37 -111 -70 -200 -211 -201 -318 -1
-63 3 -71 57 -126 37 -37 98 -56 129 -41 20 9 17 11 -24 11 -54 1 -97 31 -118
81 -29 70 7 200 82 297 32 42 131 123 149 123 5 0 9 5 9 10 0 13 -27 13 -35 0z"/>
<path d="M3005 2244 c-44 -29 -50 -35 -90 -89 -32 -42 -40 -54 -68 -104 -31
-55 -10 -33 39 41 66 99 127 158 164 158 37 0 44 -21 35 -113 -10 -112 -59
-262 -127 -396 -31 -59 -35 -81 -15 -81 19 0 40 26 68 80 33 64 140 234 151
238 4 2 8 9 8 15 0 6 12 23 27 39 14 15 24 30 21 33 -3 3 -30 -27 -59 -67 -30
-40 -59 -79 -66 -86 -7 -7 -13 -19 -13 -27 0 -7 -6 -15 -14 -18 -11 -4 -12 0
-5 21 4 15 19 63 33 107 35 110 44 216 22 250 -22 33 -62 33 -111 -1z"/>
<path d="M3375 2225 c-33 -15 -145 -120 -145 -137 0 -5 20 12 44 38 24 27 62
59 84 72 37 20 42 21 56 6 9 -8 16 -20 16 -26 0 -13 -44 -116 -76 -180 -13
-27 -24 -53 -24 -58 0 -6 -9 -29 -20 -52 -26 -54 -43 -152 -35 -203 6 -41 46
-85 77 -85 7 0 3 7 -8 15 -27 19 -36 73 -24 154 11 82 41 160 124 329 54 110
23 168 -69 127z"/>
<path d="M3496 2055 c-20 -20 -20 -29 -3 -44 11 -8 18 -6 32 9 17 19 17 22 3
36 -14 14 -17 14 -32 -1z"/>
<path d="M4390 2034 c-6 -14 -10 -35 -10 -47 0 -12 -9 -42 -20 -66 -11 -24
-19 -46 -17 -48 3 -2 10 10 17 27 11 27 17 31 44 28 28 -3 31 -6 29 -37 -1
-18 -11 -47 -23 -63 -27 -37 -38 -102 -20 -123 7 -8 22 -15 34 -14 11 0 15 3
9 6 -23 9 -14 62 27 148 22 47 40 89 40 93 0 5 -28 6 -62 4 l-62 -5 27 32 c28
33 32 47 21 75 -9 24 -23 19 -34 -10z"/>
<path d="M2603 2034 c40 -22 38 -76 -8 -144 -42 -63 -44 -72 -7 -28 16 18 36
52 45 76 16 40 16 46 1 78 -11 23 -23 34 -38 34 -19 -1 -18 -2 7 -16z"/>
<path d="M4627 1984 c-24 -25 -24 -27 -10 -87 20 -85 13 -151 -20 -185 l-26
-27 37 -2 c26 -1 31 1 18 6 -19 7 -19 8 1 28 47 47 54 89 25 138 -39 64 -35
126 10 145 17 6 18 9 6 9 -9 1 -28 -11 -41 -25z"/>
<path d="M4179 1919 c-27 -28 -49 -57 -49 -66 0 -8 -9 -28 -21 -44 -11 -16
-16 -29 -10 -29 6 0 11 -13 11 -28 0 -71 80 -95 140 -41 l35 30 -40 -25 c-46
-30 -67 -32 -89 -10 -20 19 -20 60 -1 98 8 15 15 34 15 41 0 6 9 23 21 36 11
13 24 29 27 34 4 6 20 21 36 33 l29 22 -27 0 c-20 0 -41 -14 -77 -51z"/>
<path d="M4296 1955 c3 -8 1 -28 -4 -45 -13 -37 -10 -38 12 -5 17 25 14 65 -4
65 -5 0 -7 -7 -4 -15z"/>
<path d="M3456 1947 c2 -7 -2 -27 -11 -43 -8 -16 -15 -35 -15 -42 0 -7 -9 -30
-20 -52 -11 -22 -20 -50 -20 -63 0 -30 29 -57 61 -56 l24 1 -25 7 c-35 10 -37
50 -6 108 13 27 30 65 36 85 6 21 16 40 21 43 19 12 8 25 -21 25 -20 0 -28 -4
-24 -13z"/>
<path d="M3623 1929 c-34 -37 -83 -127 -122 -222 -10 -27 -10 -28 11 -25 13 2
27 13 33 26 5 12 13 22 17 22 5 0 8 6 8 14 0 8 12 29 27 48 15 18 20 27 10 19
-9 -7 -17 -11 -17 -7 0 13 64 126 72 126 4 0 8 7 8 15 0 24 -17 18 -47 -16z"/>
<path d="M3906 1939 c-14 -11 -26 -27 -26 -35 0 -8 -11 -32 -25 -52 -14 -20
-25 -40 -25 -45 0 -5 -11 -23 -25 -41 -30 -39 -34 -86 -7 -86 10 0 23 12 29
28 7 15 24 47 40 71 15 25 22 41 15 37 -19 -12 -14 6 13 46 14 20 25 40 25 44
0 4 7 15 16 25 23 26 0 32 -30 8z"/>
<path d="M3740 1924 c-47 -26 -84 -56 -43 -35 12 6 24 11 27 11 13 0 4 -33
-18 -68 -29 -45 -41 -104 -26 -132 11 -20 54 -28 64 -11 3 5 -2 8 -12 7 -30
-2 -18 73 25 161 21 43 39 81 41 86 6 12 -11 7 -58 -19z"/>
<path d="M4044 1935 c-10 -8 -26 -15 -35 -15 -9 0 -24 -10 -35 -22 -16 -20
-17 -21 -1 -9 12 9 21 11 28 4 6 -6 -3 -36 -27 -86 -35 -74 -36 -78 -20 -102
21 -31 57 -32 82 -2 l19 22 -22 -19 c-19 -15 -25 -17 -38 -6 -10 8 -13 21 -9
34 13 48 50 133 71 165 34 50 28 67 -13 36z"/>
<path d="M3639 1853 c-13 -16 -12 -17 4 -4 16 13 21 21 13 21 -2 0 -10 -8 -17
-17z"/>
<path d="M4246 1855 c-11 -8 -15 -15 -9 -15 6 0 16 7 23 15 16 19 11 19 -14 0z"/>
<path d="M4550 1855 c-7 -9 -11 -17 -9 -20 3 -2 10 5 17 15 14 24 10 26 -8 5z"/>
<path d="M4744 1815 c-9 -14 -15 -27 -13 -30 3 -2 12 10 21 26 21 36 15 39 -8
4z"/>
<path d="M2510 1810 c-9 -6 -10 -10 -3 -10 6 0 15 5 18 10 8 12 4 12 -15 0z"/>
<path d="M4311 1811 c-1 -8 -8 -23 -18 -33 -9 -10 -14 -20 -11 -23 8 -9 40 45
34 58 -3 8 -5 7 -5 -2z"/>
<path d="M4502 1778 c-24 -30 -14 -71 22 -90 17 -9 19 -8 9 3 -15 15 -17 55
-4 64 5 3 12 -3 14 -12 4 -15 5 -15 6 3 1 19 -16 44 -30 44 -4 0 -11 -6 -17
-12z"/>
<path d="M4706 1743 c-6 -14 -5 -15 5 -6 7 7 10 15 7 18 -3 3 -9 -2 -12 -12z"/>
<path d="M3383 1593 c9 -2 23 -2 30 0 6 3 -1 5 -18 5 -16 0 -22 -2 -12 -5z"/>
</g>
</svg>
